<?xml version="1.0" encoding="utf-8"?>
<!-- Generator: Adobe Illustrator 25.4.1, SVG Export Plug-In . SVG Version: 6.00 Build 0)  -->
<svg version="1.1" id="Layer_1" xmlns="http://www.w3.org/2000/svg" xmlns:xlink="http://www.w3.org/1999/xlink" x="0px" y="0px"
	 viewBox="0 0 40 40" style="enable-background:new 0 0 40 40;" xml:space="preserve">
<style type="text/css">
	.st0{fill:#FFFFFF;}
</style>
<path class="st0" d="M32.4,9.7C32.4,9.7,32.4,9.7,32.4,9.7c-2.3-1.1-4.7-1.9-7.3-2.3c0,0-0.1,0-0.1,0.1c-0.3,0.6-0.7,1.3-0.9,1.9
	c-2.7-0.4-5.5-0.4-8.1,0C15.7,8.7,15.3,8,15,7.5c0,0-0.1-0.1-0.1-0.1c-2.5,0.4-5,1.2-7.2,2.2c0,0,0,0,0,0C3,16.6,1.7,23.3,2.3,30
	c0,0,0,0.1,0,0.1c3,2.2,6,3.6,8.9,4.5c0,0,0.1,0,0.1,0c0.7-0.9,1.3-1.9,1.8-3c0-0.1,0-0.1-0.1-0.2c-1-0.4-1.9-0.8-2.8-1.3
	c-0.1,0-0.1-0.1,0-0.2c0.2-0.1,0.4-0.3,0.6-0.4c0,0,0.1,0,0.1,0c5.8,2.7,12.1,2.7,17.9,0c0,0,0.1,0,0.1,0c0.2,0.1,0.4,0.3,0.6,0.4
	c0.1,0,0.1,0.1,0,0.2c-0.9,0.5-1.8,1-2.8,1.3c-0.1,0-0.1,0.1-0.1,0.2c0.5,1,1.1,2,1.8,3c0,0,0.1,0.1,0.1,0c2.9-0.9,5.9-2.3,8.9-4.5
	c0,0,0,0,0-0.1C38.4,22.3,36.4,15.6,32.4,9.7z M14.1,25.9c-1.8,0-3.2-1.6-3.2-3.6c0-2,1.4-3.6,3.2-3.6c1.8,0,3.2,1.6,3.2,3.6
	C17.3,24.3,15.9,25.9,14.1,25.9z M25.9,25.9c-1.8,0-3.2-1.6-3.2-3.6c0-2,1.4-3.6,3.2-3.6c1.8,0,3.2,1.6,3.2,3.6
	C29.1,24.3,27.7,25.9,25.9,25.9z"/>
</svg>
