<?xml version="1.0" encoding="utf-8"?>
<!-- Generator: Adobe Illustrator 25.4.1, SVG Export Plug-In . SVG Version: 6.00 Build 0)  -->
<svg version="1.1" id="Layer_1" xmlns="http://www.w3.org/2000/svg" xmlns:xlink="http://www.w3.org/1999/xlink" x="0px" y="0px"
	 viewBox="0 0 40 40" style="enable-background:new 0 0 40 40;" xml:space="preserve">
<style type="text/css">
	.st0{fill:#FFFFFF;}
</style>
<path class="st0" d="M20,8.4c3.8,0,4.2,0,5.7,0.1c1,0,1.6,0.2,2.1,0.3C28,8.9,28.2,8.9,28.3,9c0.3,0.1,0.6,0.3,0.9,0.4
	c0.3,0.2,0.5,0.4,0.7,0.6c0.5,0.5,0.8,1,1.1,1.6c0.2,0.5,0.4,1.2,0.5,2.6c0.1,1.5,0.1,1.9,0.1,5.7c0,1.4,0,2.3,0,3
	c0,0.7,0,1.2,0,1.6c0,0.3,0,0.7,0,1.1c-0.1,1.4-0.3,2.1-0.5,2.6C30.8,29,30.5,29.5,30,30c-0.5,0.5-1,0.8-1.6,1.1
	c-0.5,0.2-1.2,0.4-2.6,0.5c-0.5,0-0.9,0-1.4,0.1c-0.5,0-1,0-1.8,0c-0.6,0-1.5,0-2.5,0c-1.1,0-1.8,0-2.5,0c-0.5,0-0.8,0-1.2,0
	c-0.8,0-1.3,0-2.1-0.1c-0.1,0-0.3,0-0.4,0l-0.3,0c-1-0.1-1.6-0.3-2-0.4C11,30.8,10.5,30.5,10,30c-0.5-0.5-0.8-1-1.1-1.6
	c-0.2-0.5-0.4-1.2-0.5-2.6c-0.1-1.5-0.1-1.9-0.1-5.7c0-3.8,0-4.2,0.1-5.7c0-0.6,0.1-1.1,0.2-1.5c0.1-0.5,0.2-0.8,0.3-1.1
	C9.2,11,9.5,10.5,10,10c0.3-0.3,0.5-0.5,0.8-0.6c0.3-0.2,0.5-0.3,0.9-0.4c0.5-0.2,1.2-0.4,2.6-0.5c0.6,0,1,0,1.5-0.1
	C16.6,8.4,17.6,8.4,20,8.4z M20,5.9c-3.8,0-4.3,0-5.8,0.1c-1.5,0.1-2.5,0.3-3.4,0.7C9.8,7,9,7.4,8.2,8.2C7.4,9,7,9.8,6.6,10.7
	c-0.3,0.9-0.6,1.9-0.7,3.4c0,0.5,0,0.9-0.1,1.3c0,0.9,0,1.9,0,4.5c0,1.7,0,2.7,0,3.5c0,1,0,1.5,0.1,2.3c0,0.7,0.1,1.4,0.2,1.9
	c0.1,0.6,0.3,1.1,0.4,1.5C7,30.2,7.4,31,8.2,31.8c0.8,0.8,1.6,1.3,2.5,1.6c0.4,0.2,0.8,0.3,1.3,0.4c0.6,0.1,1.3,0.2,2.1,0.3
	c1.5,0.1,2,0.1,5.8,0.1c2.3,0,3.4,0,4.2,0c0.6,0,1,0,1.6-0.1c1.5-0.1,2.5-0.3,3.4-0.7c0.9-0.4,1.7-0.8,2.5-1.6
	c0.8-0.8,1.3-1.6,1.6-2.5c0.3-0.9,0.6-1.9,0.7-3.4c0-0.7,0-1.1,0.1-1.7c0-0.8,0-1.9,0-4.1c0-3.8,0-4.3-0.1-5.8
	c-0.1-1.5-0.3-2.5-0.7-3.4C33,9.8,32.6,9,31.8,8.2c-0.5-0.5-0.9-0.8-1.4-1.1c-0.3-0.2-0.7-0.4-1.1-0.5c-0.9-0.3-1.9-0.6-3.4-0.7
	C24.3,5.9,23.8,5.9,20,5.9z M20,12.7c-4,0-7.3,3.3-7.3,7.3c0,4,3.3,7.3,7.3,7.3c4,0,7.3-3.3,7.3-7.3C27.3,16,24,12.7,20,12.7z
	 M20,24.7c-2.6,0-4.7-2.1-4.7-4.7c0-2.6,2.1-4.7,4.7-4.7c2.6,0,4.7,2.1,4.7,4.7C24.7,22.6,22.6,24.7,20,24.7z M29.2,12.4
	c0,0.9-0.8,1.7-1.7,1.7c-0.9,0-1.7-0.8-1.7-1.7c0-0.9,0.8-1.7,1.7-1.7C28.5,10.7,29.2,11.5,29.2,12.4z"/>
</svg>
