<?xml version="1.0" encoding="utf-8"?>
<!-- Generator: Adobe Illustrator 22.1.0, SVG Export Plug-In . SVG Version: 6.00 Build 0)  -->
<svg version="1.1" id="Layer_1" xmlns="http://www.w3.org/2000/svg" xmlns:xlink="http://www.w3.org/1999/xlink" x="0px" y="0px"
	 viewBox="0 0 135 77" style="enable-background:new 0 0 135 77;" xml:space="preserve">
<style type="text/css">
	.st0{fill:none;}
	.st1{fill:#CF6D38;}
	.st2{fill:#B9484C;}
	.st3{fill:#A93064;}
	.st4{fill:#922557;}
</style>
<title>Loopable ribbon 5</title>
<g>
	<path class="st0" d="M67.5,32.4c-21.4,0-29.2,4.9-40.7,8.5C38.3,37.3,46.1,32.4,67.5,32.4z"/>
	<path class="st0" d="M67.5,16.2c-21.4,0-29.2,4.9-40.7,8.5C38.3,21.1,46.1,16.2,67.5,16.2z"/>
	<path class="st0" d="M67.5,48.6C33.7,48.6,33.7,60.8,0,60.8C33.8,60.8,33.8,48.6,67.5,48.6L67.5,48.6z"/>
	<path class="st1" d="M67.5,16.2c33.7,0,33.8,12.3,67.5,12.3V0C101.3,0,33.8,0,0,0v28.5c12.4,0,20.2-1.6,26.8-3.7
		C38.3,21.1,46.1,16.2,67.5,16.2z"/>
	<path class="st2" d="M67.5,32.4c33.7,0,33.8,12.3,67.5,12.3V28.5c-33.7,0-33.8-12.3-67.5-12.3c-21.4,0-29.2,4.9-40.7,8.5
		c-6.6,2.1-14.5,3.7-26.8,3.7l0,0l0,0l0,0v16.2c12.4,0,20.2-1.6,26.8-3.7C38.3,37.3,46.1,32.4,67.5,32.4z"/>
	<path class="st3" d="M67.5,48.6L67.5,48.6c33.7,0,33.8,12.3,67.5,12.3V44.6c-33.7,0-33.8-12.3-67.5-12.3c-21.4,0-29.2,4.9-40.7,8.5
		C20.2,43,12.4,44.6,0,44.6l0,0l0,0l0,0v16.2C33.7,60.8,33.7,48.6,67.5,48.6L67.5,48.6z"/>
	<path class="st4" d="M67.5,48.6L67.5,48.6C33.8,48.6,33.8,60.8,0,60.8V77c33.8,0,33.7-12.3,67.5-12.3S101.2,77,135,77V60.8
		C101.3,60.8,101.2,48.6,67.5,48.6z"/>
</g>
</svg>
