<svg id="Layer_1"
 data-name="Layer 1"
  xmlns="http://www.w3.org/2000/svg"
   viewBox="0 0 862.25 894.6">
   <defs>
   <style type="text/css"><![CDATA[
       #MyRect {
         stroke: red;
         fill: red;
       }
    ]]></style>

   </defs>
   <title>Bubble_ptrn</title>
   <path class="cls-1" d="M275.09,258.45h0c-42-32.22-101.53-23.92-133.74,17.57h0A95.38,95.38,0,0,0,292.66,392.19h0a96,96,0,0,0-17.57-133.74ZM162.83,307.26a50,50,0,0,0-7.33,38.07,8,8,0,0,1-5.36,8.78h0c-3.91,1.47-8.3-1-9.77-4.88v-1c-3.41-17.09.49-34.66,9.77-49.3A7.79,7.79,0,0,1,160.87,297l1.47,1.46h0c1.95,2.44,2.44,6.35.49,8.79Zm21.47-18.55-2,1a7.61,7.61,0,0,1-9.27-1.95h0a7.25,7.25,0,0,1,1-10.74c.49-.48,1-.48,1.47-1l2.44-1c3.9-2,8.29,0,10.25,3.91,0,.48,0,.48.49,1h0c1,2.93-1,6.84-4.4,8.79Z" transform="translate(-121.48 -65.4)" fill="rgba(234, 234, 234, 0.1)"/>
   <path class="cls-1" d="M678.52,744.47h0C636.54,712.25,577,720.55,544.78,762h0A95.38,95.38,0,1,0,696.09,878.21h0a96,96,0,0,0-17.57-133.74ZM566.25,793.28a50,50,0,0,0-7.32,38.07,8,8,0,0,1-5.37,8.79h0c-3.9,1.46-8.29-1-9.76-4.88v-1c-3.41-17.08.49-34.66,9.76-49.3a7.8,7.8,0,0,1,10.74-2l1.47,1.46h0c2,2.44,2.44,6.35.48,8.79Zm21.48-18.55-2,1a7.64,7.64,0,0,1-9.28-2h0a7.24,7.24,0,0,1,1-10.73c.49-.49,1-.49,1.47-1l2.44-1c3.9-1.95,8.29,0,10.25,3.91,0,.49,0,.49.48,1h0c1,2.93-1,6.84-4.39,8.79Z" transform="translate(-121.48 -65.4)" fill="rgba(234, 234, 234, 0.1)"/>
   <path class="cls-1" d="M946.66,85.1h0c-42-32.22-101.52-23.92-133.73,17.57h0A95.38,95.38,0,1,0,964.24,218.84h0A96,96,0,0,0,946.66,85.1ZM834.4,133.91A50,50,0,0,0,827.08,172a8,8,0,0,1-5.37,8.79h0c-3.9,1.46-8.3-1-9.76-4.88v-1c-3.42-17.08.49-34.66,9.76-49.3a7.8,7.8,0,0,1,10.74-2l1.46,1.46h0c2,2.44,2.44,6.35.49,8.79Zm21.48-18.55-2,1a7.64,7.64,0,0,1-9.28-2h0a7.23,7.23,0,0,1,1-10.73c.49-.49,1-.49,1.46-1l2.44-1c3.91-2,8.3,0,10.25,3.91,0,.49,0,.49.49,1h0c1,2.93-1,6.84-4.39,8.79Z" transform="translate(-121.48 -65.4)" fill="rgba(234, 234, 234, 0.1)"/>
   <path class="cls-1" d="M448.45,92.55h0a41.7,41.7,0,0,0-58.3,8.29h0a41.64,41.64,0,0,0,66.58,50h0a41.89,41.89,0,0,0-8.28-58.3Zm-48.78,21.82a21.85,21.85,0,0,0-3,16.66,3.46,3.46,0,0,1-2.3,3.85h0a3.42,3.42,0,0,1-4.29-2.08v-.43a29.48,29.48,0,0,1,4-21.56,3.41,3.41,0,0,1,4.68-.9l.65.63h0a3.21,3.21,0,0,1,.25,3.83Zm9.29-8.19-.85.43a3.3,3.3,0,0,1-4.05-.81h0a3.16,3.16,0,0,1,.37-4.69c.21-.21.43-.22.64-.43l1.06-.44a3.34,3.34,0,0,1,4.49,1.66c0,.21,0,.21.22.42h0c.44,1.28-.4,3-1.88,3.86Z" transform="translate(-121.48 -65.4)" fill="rgba(234, 234, 234, 0.1)"/>
   <path class="cls-1" d="M522.23,465.18h0a41.68,41.68,0,0,0-58.29,8.28h0a41.64,41.64,0,1,0,66.58,50h0a41.89,41.89,0,0,0-8.29-58.29ZM473.46,487a21.78,21.78,0,0,0-3,16.65,3.49,3.49,0,0,1-2.31,3.86h0a3.42,3.42,0,0,1-4.28-2.09V505a29.52,29.52,0,0,1,4-21.57,3.41,3.41,0,0,1,4.68-.9c.21.21.43.42.64.64h0a3.2,3.2,0,0,1,.26,3.83Zm9.29-8.2-.85.44a3.33,3.33,0,0,1-4.06-.81h0a3.16,3.16,0,0,1,.38-4.69c.21-.22.42-.22.63-.44l1.06-.43a3.35,3.35,0,0,1,4.5,1.65c0,.22,0,.22.21.43h0c.44,1.27-.39,3-1.87,3.85Z" transform="translate(-121.48 -65.4)" fill="rgba(234, 234, 234, 0.1)"/>
   <path class="cls-1" d="M188,834.31h0a41.7,41.7,0,0,0-58.3,8.28h0a41.64,41.64,0,1,0,66.58,50h0A41.87,41.87,0,0,0,188,834.31Zm-48.78,21.82a21.82,21.82,0,0,0-3,16.65,3.49,3.49,0,0,1-2.3,3.86h0a3.43,3.43,0,0,1-4.29-2.09v-.42a29.48,29.48,0,0,1,4-21.56,3.4,3.4,0,0,1,4.68-.91l.65.64h0a3.21,3.21,0,0,1,.25,3.83Zm9.29-8.2-.85.44a3.33,3.33,0,0,1-4.06-.81h0a3.16,3.16,0,0,1,.38-4.69c.21-.22.43-.22.64-.43l1.06-.44a3.34,3.34,0,0,1,4.49,1.66c0,.21,0,.21.22.42h0c.44,1.27-.4,3-1.88,3.85Z" transform="translate(-121.48 -65.4)" fill="rgba(234, 234, 234, 0.1)"/>
   <path class="cls-1" d="M835.73,396h0a41.69,41.69,0,0,0-58.29,8.29h0a41.64,41.64,0,0,0,66.58,50h0a41.9,41.9,0,0,0-8.29-58.3ZM787,417.82a21.89,21.89,0,0,0-3,16.66,3.47,3.47,0,0,1-2.3,3.86h0a3.42,3.42,0,0,1-4.28-2.09v-.43a29.5,29.5,0,0,1,4-21.56,3.41,3.41,0,0,1,4.68-.9l.64.63h0a3.2,3.2,0,0,1,.25,3.83Zm9.29-8.19-.84.44a3.34,3.34,0,0,1-4.06-.81h0a3.18,3.18,0,0,1,.38-4.7c.21-.21.42-.21.63-.43l1.06-.44a3.34,3.34,0,0,1,4.49,1.66c0,.21,0,.21.22.43h0c.44,1.27-.39,3-1.88,3.85Z" transform="translate(-121.48 -65.4)" fill="rgba(234, 234, 234, 0.1)"/>
   <path class="cls-1" d="M913.59,885.17h0a41.71,41.71,0,0,0-58.3,8.29h0a41.64,41.64,0,0,0,66.58,50h0a41.9,41.9,0,0,0-8.28-58.3ZM864.81,907a21.78,21.78,0,0,0-3,16.65,3.49,3.49,0,0,1-2.31,3.86h0a3.43,3.43,0,0,1-4.28-2.09V925a29.51,29.51,0,0,1,4-21.57,3.41,3.41,0,0,1,4.68-.9l.65.63h0a3.23,3.23,0,0,1,.25,3.84Zm9.29-8.2-.85.44a3.35,3.35,0,0,1-4.06-.81h0a3.18,3.18,0,0,1,.38-4.7c.21-.21.42-.21.63-.43l1.07-.44a3.35,3.35,0,0,1,4.49,1.66c0,.21,0,.21.21.43h0c.44,1.27-.39,3-1.87,3.85Z"
 transform="translate(-121.48 -65.4)" fill="rgba(234, 234, 234, 0.1)" /></svg>