<svg width="135" height="77" viewBox="0 0 135 77" fill="none" xmlns="http://www.w3.org/2000/svg">
<path d="M67.5 16.2C101.2 16.2 101.3 28.5 135 28.5V0C101.3 0 33.8 0 0 0V28.5C12.4 28.5 20.2 26.9 26.8 24.8C38.3 21.1 46.1 16.2 67.5 16.2Z" fill="#922557"/>
<path d="M67.5 32.4C101.2 32.4 101.3 44.7 135 44.7V28.5C101.3 28.5 101.2 16.2 67.5 16.2C46.1 16.2 38.3 21.1 26.8 24.7C20.2 26.8 12.3 28.4 0 28.4V44.5999C12.4 44.5999 20.2 43 26.8 40.9C38.3 37.3 46.1 32.4 67.5 32.4Z" fill="#A93064"/>
<path d="M67.5 48.6C101.2 48.6 101.3 60.9001 135 60.9001V44.6C101.3 44.6 101.2 32.3 67.5 32.3C46.1 32.3 38.3 37.2 26.8 40.8C20.2 43 12.4 44.6 0 44.6V60.8C33.7 60.8 33.7 48.6 67.5 48.6Z" fill="#B9484C"/>
<path d="M67.5 48.6C33.8 48.6 33.8 60.8 0 60.8V77C33.8 77 33.7 64.7 67.5 64.7C101.3 64.7 101.2 77 135 77V60.8C101.3 60.8 101.2 48.6 67.5 48.6Z" fill="#CF6D38"/>
</svg>
