<svg xmlns="http://www.w3.org/2000/svg" viewBox="0 0 133 68.42"><g id="Layer_2" data-name="Layer 2"><g id="Layer_1-2" data-name="Layer 1"><path d="M66.6,0H0V21.72c33.3,0,33.3-12,66.6-12s33.3,11.9,66.4,12V0C99.9-.06,99.8,0,66.6,0Z" style="fill:#cf6d38"/><path d="M0,21.72v15.4c33.3,0,33.3-12,66.6-12S99.9,37,133,37.12V21.62c-33.1,0-33.2-12-66.4-12S33.3,21.72,0,21.72Z" style="fill:#b9494c"/><path d="M0,37.12v15.5c33.3,0,33.3-12,66.6-12s33.3,11.9,66.4,12V37.22c-33.1,0-33.2-12-66.4-12S33.3,37.12,0,37.12Z" style="fill:#a92f64"/><path d="M0,52.62v15.8c33.1,0,33.2-12,66.4-12s33.3,12,66.6,12V52.62c-33.1,0-33.2-12-66.4-12S33.3,52.62,0,52.62Z" style="fill:#912657"/></g></g></svg>