<svg xmlns="http://www.w3.org/2000/svg" viewBox="0 0 133 74.2"><g id="Layer_2" data-name="Layer 2"><g id="Layer_1-2" data-name="Layer 1"><path d="M66.6,0C33.3,0,33.3,12,0,12V27.5c33.3,0,33.3-12,66.6-12s33.3,11.9,66.4,12V12C99.9,11.9,99.8,0,66.6,0Z" style="fill:#cf6d38"/><path d="M0,27.5V42.9c33.3,0,33.3-12,66.6-12s33.3,11.9,66.4,12V27.4c-33.1,0-33.2-12-66.4-12S33.3,27.5,0,27.5Z" style="fill:#b9494c"/><path d="M0,42.9V58.4c33.3,0,33.3-12,66.6-12s33.3,11.9,66.4,12V43C99.9,43,99.8,31,66.6,31S33.3,42.9,0,42.9Z" style="fill:#a92f64"/><path d="M133,74.2V58.4c-33.1,0-33.2-12-66.4-12S33.3,58.4,0,58.4V74.2Z" style="fill:#912657"/></g></g></svg>