<svg width="139" height="76" viewBox="0 0 139 76" fill="none" xmlns="http://www.w3.org/2000/svg">
<path d="M0.0100098 47.5C34.7522 47.5 34.7418 59.5 69.4945 59.5C104.237 59.5 104.247 47.5 138.989 47.5V75.35C104.278 75.35 104.278 75.35 69.5258 75.35C34.7731 75.35 34.7731 75.35 0.0100098 75.35V47.5Z" fill="#922557"/>
<path d="M0.0104331 31.66C34.7527 31.66 34.7422 43.66 69.4949 43.66C104.237 43.66 104.248 31.66 138.99 31.66V47.5C104.248 47.5 104.237 59.5 69.4949 59.5C34.7527 59.5 34.7527 47.5 0 47.5H0.0104331V31.66Z" fill="#A93064"/>
<path d="M0.0104331 15.83C34.7527 15.83 34.7422 27.83 69.4949 27.83C104.237 27.83 104.248 15.83 138.99 15.83V31.66C104.248 31.66 104.237 43.66 69.4949 43.66C34.7527 43.66 34.7527 31.66 0 31.66H0.0104331V15.83Z" fill="#B9484C"/>
<path d="M0.0100098 7.62939e-06C34.7627 7.62939e-06 34.7522 12 69.5049 12C104.258 12 104.247 7.62939e-06 139 7.62939e-06V15.83C104.258 15.83 104.247 27.83 69.5049 27.83C34.7627 27.83 34.7627 15.83 0.0100098 15.83V7.62939e-06Z" fill="#CF6D38"/>
</svg>
