<svg xmlns="http://www.w3.org/2000/svg" viewBox="0 0 133.25 75.35"><defs><style>.cls-1{fill:none;}.cls-2{fill:#cf6d38;}.cls-3{fill:#b9484c;}.cls-4{fill:#a93064;}.cls-5{fill:#922557;}</style></defs><title>Loopable ribbon 5</title><g id="Layer_2" data-name="Layer 2"><g id="Layer_1-2" data-name="Layer 1"><path class="cls-1" d="M133.24,43.69h0"/><path class="cls-1" d="M0,43.69H0c33.31,0,33.31-12,66.61-12h0C33.3,31.69,33.31,43.69,0,43.69Z"/><path class="cls-1" d="M133.24,59.52h0"/><path class="cls-1" d="M0,59.52H0c33.31,0,33.31-12,66.61-12h0C33.3,47.52,33.31,59.52,0,59.52Z"/><path class="cls-1" d="M0,27.85H0c33.31,0,33.31-12,66.61-12h0C33.3,15.85,33.31,27.85,0,27.85Z"/><path class="cls-1" d="M133.24,27.85h0"/><path class="cls-2" d="M0,27.85c33.3,0,33.29-12,66.6-12h0c33.3,0,33.31,12,66.61,12V12C99.94,12,99.94,0,66.63,0S33.32,12,0,12Z"/><path class="cls-3" d="M0,43.69c33.3,0,33.29-12,66.6-12h0c33.3,0,33.31,12,66.61,12V27.85h0c-33.3,0-33.31-12-66.61-12h0c-33.3,0-33.3,12-66.61,12H0Z"/><path class="cls-4" d="M0,59.52c33.3,0,33.29-12,66.6-12h0c33.3,0,33.31,12,66.61,12V43.69h0c-33.3,0-33.31-12-66.61-12h0c-33.3,0-33.3,12-66.61,12H0Z"/><path class="cls-5" d="M0,75.35c33.31,0,33.3-12,66.61-12s33.3,12,66.61,12l0-15.83h0c-33.3,0-33.31-12-66.61-12h0c-33.3,0-33.3,12-66.61,12H0Z"/></g></g></svg>