<svg width="139" height="76" viewBox="0 0 139 76" fill="none" xmlns="http://www.w3.org/2000/svg">
<path d="M0.0104218 27.85C34.7526 27.85 34.7422 15.85 69.4948 15.85C104.237 15.85 104.247 27.85 138.99 27.85V0C104.279 0 104.279 0 69.5261 0C34.7735 0 34.7735 0 0.0104218 0V27.85Z" fill="#CF6D38"/>
<path d="M0.0104331 43.69C34.7526 43.69 34.7422 31.69 69.4948 31.69C104.237 31.69 104.247 43.69 138.99 43.69V27.85C104.247 27.85 104.237 15.85 69.4948 15.85C34.7526 15.85 34.7526 27.85 0 27.85H0.0104331V43.69Z" fill="#B9484C"/>
<path d="M0.0104331 59.52C34.7526 59.52 34.7422 47.52 69.4948 47.52C104.237 47.52 104.247 59.52 138.99 59.52V43.69C104.247 43.69 104.237 31.69 69.4948 31.69C34.7526 31.69 34.7526 43.69 0 43.69H0.0104331V59.52Z" fill="#A93064"/>
<path d="M0.0104218 75.35C34.763 75.35 34.7526 63.35 69.5052 63.35C104.258 63.35 104.247 75.35 139 75.35V59.52C104.258 59.52 104.247 47.52 69.5052 47.52C34.763 47.52 34.763 59.52 0.0104218 59.52V75.35Z" fill="#922557"/>
</svg>
