<svg width="133" height="75" viewBox="0 0 133 75" fill="none" xmlns="http://www.w3.org/2000/svg">
<path d="M0.0100098 27.85C33.31 27.85 33.3 15.85 66.61 15.85C99.91 15.85 99.92 27.85 133.22 27.85V12C99.95 12 99.95 0 66.64 0C33.33 0 33.33 12 0.0100098 12V27.85Z" fill="#922557"/>
<path d="M0.01 43.69C33.31 43.69 33.3 31.69 66.61 31.69C99.91 31.69 99.92 43.69 133.22 43.69V27.85C99.92 27.85 99.91 15.85 66.61 15.85C33.31 15.85 33.31 27.85 0 27.85H0.01V43.69Z" fill="#A93064"/>
<path d="M0.01 59.52C33.31 59.52 33.3 47.52 66.61 47.52C99.91 47.52 99.92 59.52 133.22 59.52V43.69C99.92 43.69 99.91 31.69 66.61 31.69C33.31 31.69 33.31 43.69 0 43.69H0.01V59.52Z" fill="#B9484C"/>
<path d="M0.0100098 75.35C33.32 75.35 33.31 63.35 66.62 63.35C99.93 63.35 99.92 75.35 133.23 75.35V59.52C99.93 59.52 99.92 47.52 66.62 47.52C33.32 47.52 33.32 59.52 0.0100098 59.52V75.35Z" fill="#CF6D38"/>
</svg>
