<svg width="133" height="75" fill="none" xmlns="http://www.w3.org/2000/svg"><path d="M.0100021 27.85C33.31 27.85 33.3 15.85 66.61 15.85c33.3 0 33.31 12 66.61 12V0H.0100021v27.85Z" fill="#922557"/><path d="M.01 43.69c33.3 0 33.29-12 66.6-12 33.3 0 33.31 12 66.61 12V27.85c-33.3 0-33.31-12-66.61-12s-33.3 12-66.61 12h.01v15.84Z" fill="#A93064"/><path d="M.01 59.52c33.3 0 33.29-12 66.6-12 33.3 0 33.31 12 66.61 12V43.69c-33.3 0-33.31-12-66.61-12s-33.3 12-66.61 12h.01v15.83Z" fill="#B9484C"/><path d="M.0100021 75.35C33.32 75.35 33.31 63.35 66.62 63.35c33.31 0 33.3 12 66.61 12V59.52c-33.3 0-33.31-12-66.61-12s-33.3 12-66.6099979 12v15.83Z" fill="#CF6D38"/></svg>